# xmcd
#
# Track frame offsets: 
#        150
#        16458
#        34354
#        52708
#        72406
#        86114
#        104179
#        121560
#        138019
#        154569
#        159586
#
# Disc length: 2322 seconds
#
# Revision: 0
# Processed by: cddbd v1.5.2PL0 Copyright (c) Steve Scherf et al.
# Submitted via: ExactAudioCopyFreeDBPlugin 1.0
#
DISCID=8909100b
DTITLE=Fantastic Negrito - Please Don't Be Dead
DYEAR=2018
DGENRE=Blues
TTITLE0=Plastic Hamburgers
TTITLE1=Bad Guy Necessity
TTITLE2=A Letter To Fear
TTITLE3=A Boy Named Andrew
TTITLE4=Transgender Biscuits
TTITLE5=The Suit That Won't Come Off
TTITLE6=A Cold November Street
TTITLE7=The Duffler
TTITLE8=Dark Windows
TTITLE9=Never Give Up
TTITLE10=Bullshit Anthem
EXTD=
EXTT0=
EXTT1=
EXTT2=
EXTT3=
EXTT4=
EXTT5=
EXTT6=
EXTT7=
EXTT8=
EXTT9=
EXTT10=
PLAYORDER=
